<?xml version="1.0" encoding="utf-8"?>
<!-- Generator: Adobe Illustrator 16.0.0, SVG Export Plug-In . SVG Version: 6.00 Build 0)  -->
<!DOCTYPE svg PUBLIC "-//W3C//DTD SVG 1.1//EN" "http://www.w3.org/Graphics/SVG/1.1/DTD/svg11.dtd">
<svg version="1.1" id="Icon" xmlns="http://www.w3.org/2000/svg" xmlns:xlink="http://www.w3.org/1999/xlink" x="0px" y="0px"
	 width="28px" height="28px" viewBox="498 498 28 28" enable-background="new 498 498 28 28" xml:space="preserve">
<g id="Icon_1_">
	<circle id="Circle" cx="512" cy="512" r="13"/>
	<path id="Hops" fill="#FFFFFF" d="M521.128,511.496c-0.182-0.181-0.439-0.262-0.692-0.216c-0.027,0.006-0.343,0.063-0.835,0.166
		c0.442-1.597,0.719-3.096,0.733-3.175c0.046-0.253-0.036-0.511-0.216-0.692c-0.183-0.182-0.441-0.262-0.692-0.216
		c-0.046,0.007-0.48,0.088-1.111,0.226c0.314-1.187,0.51-2.242,0.521-2.299c0.045-0.252-0.036-0.511-0.216-0.692
		c-0.183-0.182-0.441-0.262-0.692-0.217c-0.346,0.063-1.327,0.253-2.396,0.543c-1.266-2.155-2.839-4.229-2.903-4.317
		c-0.149-0.194-0.378-0.309-0.623-0.309c-0.243,0-0.474,0.114-0.621,0.309c-0.066,0.087-1.639,2.161-2.903,4.316
		c-1.068-0.289-2.05-0.479-2.394-0.541c-0.253-0.046-0.511,0.035-0.692,0.215c-0.181,0.182-0.262,0.44-0.215,0.693
		c0.01,0.056,0.204,1.111,0.52,2.299c-0.632-0.137-1.065-0.217-1.112-0.226c-0.252-0.046-0.511,0.035-0.692,0.216
		c-0.182,0.181-0.262,0.44-0.216,0.692c0.015,0.078,0.291,1.577,0.732,3.176c-0.491-0.103-0.807-0.161-0.835-0.167
		c-0.251-0.045-0.513,0.035-0.694,0.216c-0.146,0.147-0.204,0.346-0.23,0.55v0.001c0,0.046,0.006,0.094,0.014,0.141
		c0.012,0.063,0.288,1.558,0.736,3.245c0.636,2.394,1.272,3.885,1.945,4.557c0.761,0.762,2.188,1.131,4.365,1.131
		c0.581,0,1.123-0.028,1.511-0.058v1.781c0,0.431,0.359,0.779,0.79,0.779c0.431,0,0.791-0.349,0.791-0.779v-1.781
		c0.388,0.029,0.922,0.058,1.503,0.058c2.177,0,3.602-0.371,4.363-1.133c0.672-0.671,1.305-2.161,1.941-4.555
		c0.447-1.688,0.722-3.182,0.733-3.245C521.391,511.936,521.311,511.677,521.128,511.496z M518.563,509.132
		c-0.166,0.751-0.411,1.767-0.705,2.712c-0.217,0.053-0.441,0.11-0.666,0.17c-0.218,0.058-0.428,0.115-0.63,0.173
		c-0.291-0.71-0.67-1.477-1.077-2.231C516.525,509.608,517.713,509.32,518.563,509.132z M517.06,506.152
		c-0.125,0.546-0.292,1.217-0.487,1.855c-0.619,0.165-1.27,0.355-1.867,0.568c-0.3-0.51-0.596-0.992-0.865-1.419
		C514.533,506.817,515.797,506.44,517.06,506.152z M512.004,502.398c0.525,0.732,1.299,1.852,1.996,3.006
		c-0.367,0.136-0.711,0.284-1.008,0.441c-0.187-0.28-0.307-0.455-0.33-0.488c-0.146-0.21-0.386-0.337-0.641-0.337
		c-0.256,0-0.497,0.126-0.643,0.337c-0.023,0.034-0.146,0.213-0.337,0.5c-0.301-0.163-0.655-0.314-1.031-0.455
		C510.705,504.251,511.48,503.131,512.004,502.398z M510.194,507.166c-0.269,0.428-0.563,0.908-0.863,1.417
		c-0.604-0.215-1.262-0.409-1.89-0.576c-0.196-0.637-0.364-1.309-0.488-1.855C508.229,506.443,509.505,506.825,510.194,507.166z
		 M508.551,509.965c-0.407,0.754-0.784,1.521-1.074,2.23c-0.21-0.059-0.429-0.12-0.656-0.18c-0.226-0.061-0.449-0.118-0.666-0.171
		c-0.295-0.945-0.54-1.961-0.706-2.712C506.306,509.321,507.505,509.612,508.551,509.965z M511.377,513.959
		c-0.441-0.441-1.236-0.867-2.408-1.288c0.776-1.854,2.218-4.178,3.052-5.461c0.833,1.282,2.27,3.597,3.047,5.452
		c-1.185,0.424-1.988,0.853-2.433,1.297c-0.255,0.255-0.461,0.581-0.629,0.952C511.838,514.54,511.632,514.214,511.377,513.959z"/>
	<g>
		<path d="M507.096,514.939h2.247c0.414,0,0.746,0.095,0.997,0.285c0.25,0.189,0.375,0.477,0.375,0.859
			c0,0.234-0.058,0.434-0.172,0.6c-0.114,0.167-0.277,0.295-0.488,0.387v0.013c0.285,0.06,0.501,0.193,0.647,0.403
			c0.146,0.209,0.22,0.473,0.22,0.787c0,0.182-0.032,0.35-0.097,0.508c-0.065,0.157-0.167,0.295-0.305,0.409
			c-0.138,0.114-0.314,0.204-0.53,0.271c-0.216,0.067-0.473,0.101-0.771,0.101h-2.123V514.939z M507.905,516.875h1.321
			c0.194,0,0.356-0.056,0.485-0.165s0.194-0.269,0.194-0.476c0-0.233-0.058-0.396-0.175-0.493c-0.116-0.094-0.285-0.142-0.504-0.142
			h-1.321V516.875z M507.905,518.9h1.431c0.246,0,0.437-0.063,0.572-0.19c0.136-0.127,0.204-0.307,0.204-0.54
			c0-0.229-0.067-0.405-0.204-0.527c-0.136-0.124-0.327-0.185-0.572-0.185h-1.431V518.9z"/>
		<path d="M513.467,514.939h1.916c0.354,0,0.66,0.061,0.919,0.182c0.26,0.121,0.471,0.286,0.635,0.495
			c0.163,0.21,0.286,0.453,0.365,0.733c0.08,0.282,0.12,0.582,0.12,0.9c0,0.319-0.04,0.62-0.12,0.9
			c-0.079,0.28-0.202,0.525-0.365,0.735c-0.164,0.209-0.375,0.374-0.635,0.495c-0.259,0.121-0.564,0.181-0.919,0.181h-1.916V514.939
			z M514.276,518.9h0.796c0.313,0,0.572-0.04,0.773-0.126c0.2-0.083,0.358-0.2,0.473-0.349s0.192-0.324,0.232-0.524
			c0.041-0.201,0.062-0.418,0.062-0.651c0-0.231-0.021-0.449-0.062-0.649c-0.04-0.202-0.118-0.377-0.232-0.525
			s-0.272-0.266-0.473-0.349c-0.201-0.085-0.46-0.127-0.773-0.127h-0.796V518.9z"/>
	</g>
</g>
</svg>
